[   0s] CDP targets: 1
[   0s]   page: file:///Users/runner/.comfy-test-cache/desktop/ComfyUI.app/Contents/Resources/desktop-ui/index.html#/welcome | ComfyUI
[   1s] Main page: file:///Users/runner/.comfy-test-cache/desktop/ComfyUI.app/Contents/Resources/desktop-ui/index.html#/welcome | ComfyUI
[   1s] Buttons: ['Get Started']
[   1s]   wizard: COMFY_TEST_GPU=0 platform=darwin preferred=['Apple Silicon', 'MPS', 'M4', 'M3', 'M2', 'M1']
[   2s]   clicked [BTN|Get Started]
[   3s]   url: file:///Users/runner/.comfy-test-cache/desktop/ComfyUI.app/Contents/Resources/desktop-ui/index.html#/welcome -> file:///Users/runner/.comfy-test-cache/desktop/ComfyUI.app/Contents/Resources/desktop-ui/index.html#/install
[   4s]   clicked [BTN|Next]
[  10s]   clicked [BTN|Next]
[  12s]   clicked [BTN|Install]
[  14s]   url: file:///Users/runner/.comfy-test-cache/desktop/ComfyUI.app/Contents/Resources/desktop-ui/index.html#/install -> file:///Users/runner/.comfy-test-cache/desktop/ComfyUI.app/Contents/Resources/desktop-ui/index.html#/server-start
[ 105s]   /system_stats up after 103s
[ 105s]   app: waiting for backend stability (continuous /system_stats up for 30s)
[ 105s]   app: /system_stats up; awaiting 30s of stability
[ 135s]   app: backend stable for 30s; proceeding
[ 135s]   capturing canvas load...
[ 144s]   post: waiting for Cloud upsell
[ 144s]   post: clicked Cloud upsell via [button:has-text("Continue Locally"):visible]
[ 147s]   post: waiting for Close Templates
[ 155s]   post: Close Templates not found, skipping
[ 155s]   post: pressed Escape (Close Templates fallback)
[ 157s]   post: waiting for Extensions
[ 158s]   post: clicked Extensions via [button[aria-label="Extensions"]:visible]
[ 160s]   ext: node meta = display='SAM3' publisher='pznodes' version='0.1.18'
[ 164s]   ext: searching "SAM3"
[ 167s]   ext: clicking SAM3 by pznodes tile
[ 170s]   ext: scrolling to + opening version selector
[ 173s]   ext: selected 0.1.18
[ 174s]   ext: clicking right-panel Install
[ 176s]   ext: clicked Install (last of 8 visible)
[ 184s]   ext: waiting for "Apply Changes" toast
[ 202s]   ext: clicked Apply Changes
[ 207s]   app: Apply Changes already triggered in-app restart, skipping pkill
[ 212s]   app: relaunching with CDP
[ 213s]   app: waiting for CDP
[ 213s]   app: CDP up after 1s
[ 213s]   app: reconnecting Playwright
[ 213s]   app: attached to http://127.0.0.1:8000/
[ 222s]   app: server ready after 5s
[ 222s]   app: waiting for main canvas (window.app.graph)
[ 222s]   app: canvas ready after 1s (http://127.0.0.1:8000/)
[ 228s]   app: forcing renderer reload to refresh node-pack manifest
[ 231s]   app: canvas re-ready after reload in 2s
[ 234s]   ext: closing Nodes Manager dialog
[ 234s]   ext: dismissing What's New popup
[ 234s]   ext: closed What's New popup
[ 237s]   ext: dismissing Node Pack Issues modal (if present)
[ 237s]   ext: closed Node Pack Issues modal
[ 239s]   ext: opening Templates sidebar
[ 240s]   ext: clicked Templates
[ 245s]   ext: locating "comfyui-sam3" section in Templates panel
[ 246s]   ext: clicked comfyui-sam3 section
[ 249s]   ext: fetching comfy-test.toml from https://raw.githubusercontent.com/PozzettiAndrea/ComfyUI-SAM3/main/comfy-test.toml
[ 249s]   ext: cpu spec = exclude ['video_point_prompt']
[ 249s]   ext: picking first matching comfyui-sam3 template
[ 249s]   ext: 5 visible cards
[ 249s]   ext: skipping video_point_prompt (not in CPU list)
[ 251s]   ext: clicked template scene_seg_interactive
[ 256s]   ext: installing WS execution listener
[ 256s]   ext: clicking Run
[ 257s]   ext: clicked Run
[ 257s]   ext: waiting for execution_success / execution_error
[ 364s]   ext: WS events=225 elapsed=106s
[ 364s]     ws: {'type': 'progress', 'ts': 1778491434800}
[ 364s]     ws: {'type': 'progress_state', 'ts': 1778491434854}
[ 364s]     ws: {'type': 'progress_state', 'ts': 1778491434856}
[ 364s]     ws: {'type': 'executing', 'ts': 1778491434856}
[ 364s]     ws: {'type': 'progress_state', 'ts': 1778491494118}
[ 364s]     ws: {'type': 'progress', 'ts': 1778491494246}
[ 364s]     ws: {'type': 'executed', 'ts': 1778491508160}
[ 364s]     ws: {'type': 'progress_state', 'ts': 1778491508709}
[ 364s]     ws: {'type': 'progress_state', 'ts': 1778491509166}
[ 364s]     ws: {'type': 'executing', 'ts': 1778491509166}
[ 364s]     ws: {'type': 'executed', 'ts': 1778491510553}
[ 364s]     ws: {'type': 'progress_state', 'ts': 1778491510629}
[ 364s]     ws: {'type': 'execution_success', 'ts': 1778491510658}
[ 364s]     ws: {'type': 'status', 'ts': 1778491512588}
[ 364s]     ws: {'type': 'executing', 'ts': 1778491512614}
[ 364s]   ext: execution_success after 106s
[ 369s]   ext: fetching comfy-test.toml from https://raw.githubusercontent.com/PozzettiAndrea/ComfyUI-SAM3/main/comfy-test.toml
[ 369s]   ext: cpu spec = exclude ['video_point_prompt']
[ 369s]   loop: workflows/ from $COMFY_TEST_WORKFLOWS -> ['image_seg_point', 'image_seg_text', 'scene_seg', 'scene_seg_interactive', 'video_point_prompt']
[ 369s]   loop: spec=exclude items=['video_point_prompt'] -> 4 workflow(s) ['image_seg_point', 'image_seg_text', 'scene_seg', 'scene_seg_interactive']
[ 369s]   loop: matching=4 first_ran='scene_seg_interactive' remaining=3 -> ['image_seg_point', 'image_seg_text', 'scene_seg']
[ 369s]   loop: full restart for workflow 2/4 (image_seg_point)
[ 369s]   loop: closing current browser
[ 369s]   loop: killing ComfyUI process
[ 374s]   loop: launching ComfyUI with --remote-debugging-port=0
[ 374s]   loop: waiting for DevToolsActivePort at /Users/runner/Library/Application Support/ComfyUI/DevToolsActivePort
[ 376s]   loop: DevToolsActivePort -> 49904 after 2s
[ 376s]   loop: reconnecting Playwright on port 49904
[ 377s]   loop: attached to file:///Users/runner/.comfy-test-cache/desktop/ComfyUI.app/Contents/Resources/desktop-ui/index.html#/server-start
[ 385s]   loop: server ready after 8s
[ 388s]   loop: canvas ready after 3s
[ 388s]   loop: forcing renderer reload
[ 391s]   loop: canvas ready after 2s
[ 394s]   ext: closing Nodes Manager dialog
[ 394s]   ext: dismissing What's New popup
[ 394s]   ext: What's New popup not present
[ 394s]   ext: dismissing Node Pack Issues modal (if present)
[ 394s]   ext: Node Pack Issues modal not present
[ 394s]   ext: opening Templates sidebar
[ 395s]   ext: clicked Templates
[ 399s]   ext: locating "comfyui-sam3" section in Templates panel
[ 401s]   ext: clicked comfyui-sam3 section
[ 403s]   ext: clicking template image_seg_point
[ 406s]   ext: clicked template image_seg_point
[ 411s]   ext: installing WS execution listener
[ 411s]   ext: clicking Run
[ 411s]   ext: clicked Run
[ 411s]   ext: waiting for execution_success / execution_error
[ 453s]   ext: WS events=28 elapsed=41s
[ 453s]     ws: {'type': 'progress_state', 'ts': 1778491566343}
[ 453s]     ws: {'type': 'progress_state', 'ts': 1778491566373}
[ 453s]     ws: {'type': 'executing', 'ts': 1778491566373}
[ 453s]     ws: {'type': 'progress_state', 'ts': 1778491602951}
[ 453s]     ws: {'type': 'progress_state', 'ts': 1778491603005}
[ 453s]     ws: {'type': 'executing', 'ts': 1778491603005}
[ 453s]     ws: {'type': 'executed', 'ts': 1778491603037}
[ 453s]     ws: {'type': 'progress_state', 'ts': 1778491603041}
[ 453s]     ws: {'type': 'progress_state', 'ts': 1778491603044}
[ 453s]     ws: {'type': 'executing', 'ts': 1778491603044}
[ 453s]     ws: {'type': 'executed', 'ts': 1778491603126}
[ 453s]     ws: {'type': 'progress_state', 'ts': 1778491603135}
[ 453s]     ws: {'type': 'execution_success', 'ts': 1778491603143}
[ 453s]     ws: {'type': 'status', 'ts': 1778491603154}
[ 453s]     ws: {'type': 'executing', 'ts': 1778491603155}
[ 453s]   ext: execution_success after 41s
[ 458s]   loop: full restart for workflow 3/4 (image_seg_text)
[ 458s]   loop: closing current browser
[ 458s]   loop: killing ComfyUI process
[ 463s]   loop: launching ComfyUI with --remote-debugging-port=0
[ 463s]   loop: waiting for DevToolsActivePort at /Users/runner/Library/Application Support/ComfyUI/DevToolsActivePort
[ 464s]   loop: DevToolsActivePort -> 50060 after 2s
[ 464s]   loop: reconnecting Playwright on port 50060
[ 465s]   loop: attached to file:///Users/runner/.comfy-test-cache/desktop/ComfyUI.app/Contents/Resources/desktop-ui/index.html#/desktop-start
[ 474s]   loop: server ready after 8s
[ 476s]   loop: canvas ready after 3s
[ 476s]   loop: forcing renderer reload
[ 478s]   loop: canvas ready after 2s
[ 481s]   ext: closing Nodes Manager dialog
[ 481s]   ext: dismissing What's New popup
[ 481s]   ext: What's New popup not present
[ 481s]   ext: dismissing Node Pack Issues modal (if present)
[ 481s]   ext: Node Pack Issues modal not present
[ 481s]   ext: opening Templates sidebar
[ 482s]   ext: clicked Templates
[ 486s]   ext: locating "comfyui-sam3" section in Templates panel
[ 488s]   ext: clicked comfyui-sam3 section
[ 490s]   ext: clicking template image_seg_text
[ 492s]   ext: clicked template image_seg_text
[ 498s]   ext: installing WS execution listener
[ 498s]   ext: clicking Run
[ 498s]   ext: clicked Run
[ 498s]   ext: waiting for execution_success / execution_error
[ 573s]   ext: WS events=22 elapsed=73s
[ 573s]     ws: {'type': 'progress_state', 'ts': 1778491649723}
[ 573s]     ws: {'type': 'executing', 'ts': 1778491649724}
[ 573s]     ws: {'type': 'progress_state', 'ts': 1778491653063}
[ 573s]     ws: {'type': 'progress_state', 'ts': 1778491653065}
[ 573s]     ws: {'type': 'executing', 'ts': 1778491653065}
[ 573s]     ws: {'type': 'progress_state', 'ts': 1778491722928}
[ 573s]     ws: {'type': 'progress_state', 'ts': 1778491723054}
[ 573s]     ws: {'type': 'executing', 'ts': 1778491723054}
[ 573s]     ws: {'type': 'executed', 'ts': 1778491723105}
[ 573s]     ws: {'type': 'progress_state', 'ts': 1778491723108}
[ 573s]     ws: {'type': 'progress_state', 'ts': 1778491723110}
[ 573s]     ws: {'type': 'executing', 'ts': 1778491723110}
[ 573s]     ws: {'type': 'executed', 'ts': 1778491723297}
[ 573s]     ws: {'type': 'progress_state', 'ts': 1778491723309}
[ 573s]     ws: {'type': 'execution_success', 'ts': 1778491723316}
[ 573s]   ext: execution_success after 73s
[ 578s]   loop: full restart for workflow 4/4 (scene_seg)
[ 578s]   loop: closing current browser
[ 578s]   loop: killing ComfyUI process
[ 583s]   loop: launching ComfyUI with --remote-debugging-port=0
[ 583s]   loop: waiting for DevToolsActivePort at /Users/runner/Library/Application Support/ComfyUI/DevToolsActivePort
[ 585s]   loop: DevToolsActivePort -> 50250 after 3s
[ 585s]   loop: reconnecting Playwright on port 50250
[ 586s]   loop: attached to file:///Users/runner/.comfy-test-cache/desktop/ComfyUI.app/Contents/Resources/desktop-ui/index.html#/server-start
[ 595s]   loop: server ready after 8s
[ 597s]   loop: canvas ready after 2s
[ 597s]   loop: forcing renderer reload
[ 599s]   loop: canvas ready after 2s
[ 602s]   ext: closing Nodes Manager dialog
[ 602s]   ext: dismissing What's New popup
[ 602s]   ext: What's New popup not present
[ 602s]   ext: dismissing Node Pack Issues modal (if present)
[ 602s]   ext: Node Pack Issues modal not present
[ 602s]   ext: opening Templates sidebar
[ 603s]   ext: clicked Templates
[ 607s]   ext: locating "comfyui-sam3" section in Templates panel
[ 609s]   ext: clicked comfyui-sam3 section
[ 611s]   ext: clicking template scene_seg
[ 613s]   ext: clicked template scene_seg
[ 619s]   ext: installing WS execution listener
[ 619s]   ext: clicking Run
[ 619s]   ext: clicked Run
[ 619s]   ext: waiting for execution_success / execution_error
[ 707s]   ext: WS events=53 elapsed=87s
[ 707s]     ws: {'type': 'progress_state', 'ts': 1778491853472}
[ 707s]     ws: {'type': 'progress_state', 'ts': 1778491853474}
[ 707s]     ws: {'type': 'executing', 'ts': 1778491853488}
[ 707s]     ws: {'type': 'progress_state', 'ts': 1778491856645}
[ 707s]     ws: {'type': 'progress_state', 'ts': 1778491856656}
[ 707s]     ws: {'type': 'executing', 'ts': 1778491856656}
[ 707s]     ws: {'type': 'progress_state', 'ts': 1778491856787}
[ 707s]     ws: {'type': 'progress_state', 'ts': 1778491856789}
[ 707s]     ws: {'type': 'executing', 'ts': 1778491856789}
[ 707s]     ws: {'type': 'progress_state', 'ts': 1778491857286}
[ 707s]     ws: {'type': 'progress_state', 'ts': 1778491857288}
[ 707s]     ws: {'type': 'executing', 'ts': 1778491857288}
[ 707s]     ws: {'type': 'executed', 'ts': 1778491857542}
[ 707s]     ws: {'type': 'progress_state', 'ts': 1778491857550}
[ 707s]     ws: {'type': 'execution_success', 'ts': 1778491857559}
[ 707s]   ext: execution_success after 87s
[ 713s] Captured 764 frames
[ 713s] Wrote /Users/runner/work/comfy-gpu-ci/comfy-gpu-ci/comfy-test-logs/SAM3-0918/dev/macos-desktop/results.json (4 workflow(s), sha=9c07d8013c59)
ffmpeg version 7.1 Copyright (c) 2000-2024 the FFmpeg developers
  built with Apple clang version 13.1.6 (clang-1316.0.21.2.5)
  configuration: --prefix=/Volumes/tempdisk/sw --extra-cflags=-fno-stack-check --arch=arm64 --cc=/usr/bin/clang --enable-gpl --enable-libvmaf --enable-libopenjpeg --enable-libopus --enable-libmp3lame --enable-libx264 --enable-libx265 --enable-libvpx --enable-libwebp --enable-libass --enable-libfreetype --enable-fontconfig --enable-libtheora --enable-libvorbis --enable-libsnappy --enable-libaom --enable-libvidstab --enable-libzimg --enable-libsvtav1 --enable-libharfbuzz --enable-libkvazaar --pkg-config-flags=--static --enable-ffplay --enable-postproc --enable-neon --enable-runtime-cpudetect --disable-indev=qtkit --disable-indev=x11grab_xcb
  libavutil      59. 39.100 / 59. 39.100
  libavcodec     61. 19.100 / 61. 19.100
  libavformat    61.  7.100 / 61.  7.100
  libavdevice    61.  3.100 / 61.  3.100
  libavfilter    10.  4.100 / 10.  4.100
  libswscale      8.  3.100 /  8.  3.100
  libswresample   5.  3.100 /  5.  3.100
  libpostproc    58.  3.100 / 58.  3.100
Input #0, image2, from '/Users/runner/work/comfy-gpu-ci/comfy-gpu-ci/comfy-test-logs/SAM3-0918/dev/macos-desktop/debug/electron_inspect/frames/frame_%06d.png':
  Duration: 00:02:32.80, start: 0.000000, bitrate: N/A
  Stream #0:0: Video: png, rgb24(pc, gbr/bt709/iec61966-2-1), 1024x653, 5 fps, 5 tbr, 5 tbn
Stream mapping:
  Stream #0:0 -> #0:0 (png (native) -> h264 (libx264))
Press [q] to stop, [?] for help
[libx264 @ 0x13be07020] using cpu capabilities: ARMv8 NEON
[libx264 @ 0x13be07020] profile High, level 3.1, 4:2:0, 8-bit
[libx264 @ 0x13be07020] 264 - core 164 r3190 7ed753b - H.264/MPEG-4 AVC codec - Copyleft 2003-2024 - http://www.videolan.org/x264.html - options: cabac=1 ref=3 deblock=1:0:0 analyse=0x3:0x113 me=hex subme=7 psy=1 psy_rd=1.00:0.00 mixed_ref=1 me_range=16 chroma_me=1 trellis=1 8x8dct=1 cqm=0 deadzone=21,11 fast_pskip=1 chroma_qp_offset=-2 threads=4 lookahead_threads=1 sliced_threads=0 nr=0 decimate=1 interlaced=0 bluray_compat=0 constrained_intra=0 bframes=3 b_pyramid=2 b_adapt=1 b_bias=0 direct=1 weightb=1 open_gop=0 weightp=2 keyint=250 keyint_min=5 scenecut=40 intra_refresh=0 rc_lookahead=40 rc=crf mbtree=1 crf=23.0 qcomp=0.60 qpmin=0 qpmax=69 qpstep=4 ip_ratio=1.40 aq=1:1.00
Output #0, mp4, to '/Users/runner/work/comfy-gpu-ci/comfy-gpu-ci/comfy-test-logs/SAM3-0918/dev/macos-desktop/debug/electron_inspect/driver.mp4':
  Metadata:
    encoder         : Lavf61.7.100
  Stream #0:0: Video: h264 (avc1 / 0x31637661), yuv420p(tv, unknown/bt709/iec61966-2-1, progressive), 1024x654, q=2-31, 5 fps, 10240 tbn
      Metadata:
        encoder         : Lavc61.19.100 libx264
      Side data:
        cpb: bitrate max/min/avg: 0/0/0 buffer size: 0 vbv_delay: N/A
frame=   23 fps=0.0 q=23.0 size=       0KiB time=00:00:04.20 bitrate=   0.1kbits/s speed=6.46x    
frame=  147 fps=114 q=23.0 size=     512KiB time=00:00:29.00 bitrate= 144.6kbits/s speed=22.5x    
frame=  289 fps=149 q=23.0 size=     768KiB time=00:00:57.40 bitrate= 109.6kbits/s speed=29.7x    
frame=  408 fps=167 q=23.0 size=    1024KiB time=00:01:21.20 bitrate= 103.3kbits/s speed=33.2x    
[vf#0:0 @ 0x600002369040] Reconfiguring filter graph because video parameters changed to rgb24(pc, gbr), 1024x656
frame=  510 fps=171 q=23.0 size=    1536KiB time=00:01:41.60 bitrate= 123.9kbits/s speed=34.1x    
[vf#0:0 @ 0x600002369040] Reconfiguring filter graph because video parameters changed to rgb24(pc, gbr), 1024x653
frame=  615 fps=174 q=23.0 size=    2048KiB time=00:02:02.60 bitrate= 136.8kbits/s speed=34.7x    
[out#0/mp4 @ 0x60000276c000] video:2656KiB audio:0KiB subtitle:0KiB other streams:0KiB global headers:0KiB muxing overhead: 0.365979%
frame=  764 fps=186 q=-1.0 Lsize=    2666KiB time=00:02:32.40 bitrate= 143.3kbits/s speed=37.2x    
[libx264 @ 0x13be07020] frame I:22    Avg QP: 9.05  size: 41696
[libx264 @ 0x13be07020] frame P:213   Avg QP:16.29  size:  5419
[libx264 @ 0x13be07020] frame B:529   Avg QP:22.58  size:  1225
[libx264 @ 0x13be07020] consecutive B-frames:  5.5%  5.2%  3.9% 85.3%
[libx264 @ 0x13be07020] mb I  I16..4: 53.1% 17.8% 29.1%
[libx264 @ 0x13be07020] mb P  I16..4:  2.5%  3.2%  3.2%  P16..4:  2.5%  0.9%  0.6%  0.0%  0.0%    skip:87.0%
[libx264 @ 0x13be07020] mb B  I16..4:  0.4%  0.4%  0.3%  B16..8:  3.1%  0.8%  0.3%  direct: 0.3%  skip:94.4%  L0:47.5% L1:46.7% BI: 5.8%
[libx264 @ 0x13be07020] 8x8 transform intra:27.2% inter:51.0%
[libx264 @ 0x13be07020] coded y,uvDC,uvAC intra: 39.4% 21.8% 17.5% inter: 1.4% 1.0% 0.3%
[libx264 @ 0x13be07020] i16 v,h,dc,p: 65% 31%  1%  2%
[libx264 @ 0x13be07020] i8 v,h,dc,ddl,ddr,vr,hd,vl,hu: 33% 20% 30%  2%  3%  3%  3%  3%  4%
[libx264 @ 0x13be07020] i4 v,h,dc,ddl,ddr,vr,hd,vl,hu: 34% 30% 17%  2%  3%  3%  4%  3%  4%
[libx264 @ 0x13be07020] i8c dc,h,v,p: 76% 13%  7%  3%
[libx264 @ 0x13be07020] Weighted P-Frames: Y:0.9% UV:0.9%
[libx264 @ 0x13be07020] ref P L0: 56.1%  3.4% 20.2% 20.4%
[libx264 @ 0x13be07020] ref B L0: 77.9% 19.0%  3.1%
[libx264 @ 0x13be07020] ref B L1: 93.0%  7.0%
[libx264 @ 0x13be07020] kb/s:142.38
[ 718s] Wrote /Users/runner/work/comfy-gpu-ci/comfy-gpu-ci/comfy-test-logs/SAM3-0918/dev/macos-desktop/debug/electron_inspect/driver.mp4
ffmpeg version 7.1 Copyright (c) 2000-2024 the FFmpeg developers
  built with Apple clang version 13.1.6 (clang-1316.0.21.2.5)
  configuration: --prefix=/Volumes/tempdisk/sw --extra-cflags=-fno-stack-check --arch=arm64 --cc=/usr/bin/clang --enable-gpl --enable-libvmaf --enable-libopenjpeg --enable-libopus --enable-libmp3lame --enable-libx264 --enable-libx265 --enable-libvpx --enable-libwebp --enable-libass --enable-libfreetype --enable-fontconfig --enable-libtheora --enable-libvorbis --enable-libsnappy --enable-libaom --enable-libvidstab --enable-libzimg --enable-libsvtav1 --enable-libharfbuzz --enable-libkvazaar --pkg-config-flags=--static --enable-ffplay --enable-postproc --enable-neon --enable-runtime-cpudetect --disable-indev=qtkit --disable-indev=x11grab_xcb
  libavutil      59. 39.100 / 59. 39.100
  libavcodec     61. 19.100 / 61. 19.100
  libavformat    61.  7.100 / 61.  7.100
  libavdevice    61.  3.100 / 61.  3.100
  libavfilter    10.  4.100 / 10.  4.100
  libswscale      8.  3.100 /  8.  3.100
  libswresample   5.  3.100 /  5.  3.100
  libpostproc    58.  3.100 / 58.  3.100
Input #0, image2, from '/Users/runner/work/comfy-gpu-ci/comfy-gpu-ci/comfy-test-logs/SAM3-0918/dev/macos-desktop/debug/electron_inspect/frames/frame_%06d.png':
  Duration: 00:01:30.40, start: 0.000000, bitrate: N/A
  Stream #0:0: Video: png, rgb24(pc, gbr/bt709/iec61966-2-1), 1024x653, 5 fps, 5 tbr, 5 tbn
Stream mapping:
  Stream #0:0 -> #0:0 (png (native) -> h264 (libx264))
Press [q] to stop, [?] for help
[libx264 @ 0x13f706140] using cpu capabilities: ARMv8 NEON
[libx264 @ 0x13f706140] profile High, level 3.1, 4:2:0, 8-bit
[libx264 @ 0x13f706140] 264 - core 164 r3190 7ed753b - H.264/MPEG-4 AVC codec - Copyleft 2003-2024 - http://www.videolan.org/x264.html - options: cabac=1 ref=3 deblock=1:0:0 analyse=0x3:0x113 me=hex subme=7 psy=1 psy_rd=1.00:0.00 mixed_ref=1 me_range=16 chroma_me=1 trellis=1 8x8dct=1 cqm=0 deadzone=21,11 fast_pskip=1 chroma_qp_offset=-2 threads=4 lookahead_threads=1 sliced_threads=0 nr=0 decimate=1 interlaced=0 bluray_compat=0 constrained_intra=0 bframes=3 b_pyramid=2 b_adapt=1 b_bias=0 direct=1 weightb=1 open_gop=0 weightp=2 keyint=250 keyint_min=5 scenecut=40 intra_refresh=0 rc_lookahead=40 rc=crf mbtree=1 crf=23.0 qcomp=0.60 qpmin=0 qpmax=69 qpstep=4 ip_ratio=1.40 aq=1:1.00
Output #0, mp4, to '/Users/runner/work/comfy-gpu-ci/comfy-gpu-ci/comfy-test-logs/SAM3-0918/dev/macos-desktop/videos/scene_seg_interactive/driver.mp4':
  Metadata:
    encoder         : Lavf61.7.100
  Stream #0:0: Video: h264 (avc1 / 0x31637661), yuv420p(tv, unknown/bt709/iec61966-2-1, progressive), 1024x654, q=2-31, 5 fps, 10240 tbn
      Metadata:
        encoder         : Lavc61.19.100 libx264
      Side data:
        cpb: bitrate max/min/avg: 0/0/0 buffer size: 0 vbv_delay: N/A
[out#0/mp4 @ 0x600000964000] video:101KiB audio:0KiB subtitle:0KiB other streams:0KiB global headers:0KiB muxing overhead: 2.112039%
frame=  111 fps=0.0 q=-1.0 Lsize=     104KiB time=00:00:21.80 bitrate=  38.9kbits/s speed=  45x    
[libx264 @ 0x13f706140] frame I:1     Avg QP:10.41  size: 53846
[libx264 @ 0x13f706140] frame P:28    Avg QP:13.91  size:  1358
[libx264 @ 0x13f706140] frame B:82    Avg QP:23.45  size:   139
[libx264 @ 0x13f706140] consecutive B-frames:  0.9%  1.8%  0.0% 97.3%
[libx264 @ 0x13f706140] mb I  I16..4: 45.1% 20.8% 34.1%
[libx264 @ 0x13f706140] mb P  I16..4:  0.6%  0.1%  0.4%  P16..4:  1.1%  0.3%  0.1%  0.0%  0.0%    skip:97.3%
[libx264 @ 0x13f706140] mb B  I16..4:  0.0%  0.1%  0.0%  B16..8:  1.7%  0.1%  0.0%  direct: 0.0%  skip:98.1%  L0:47.8% L1:51.3% BI: 0.8%
[libx264 @ 0x13f706140] 8x8 transform intra:20.8% inter:38.1%
[libx264 @ 0x13f706140] coded y,uvDC,uvAC intra: 43.7% 17.6% 14.0% inter: 0.2% 0.2% 0.1%
[libx264 @ 0x13f706140] i16 v,h,dc,p: 47% 52%  0%  0%
[libx264 @ 0x13f706140] i8 v,h,dc,ddl,ddr,vr,hd,vl,hu: 43% 22% 33%  0%  0%  0%  0%  1%  0%
[libx264 @ 0x13f706140] i4 v,h,dc,ddl,ddr,vr,hd,vl,hu: 40% 33% 12%  2%  2%  3%  3%  2%  3%
[libx264 @ 0x13f706140] i8c dc,h,v,p: 66% 23% 10%  1%
[libx264 @ 0x13f706140] Weighted P-Frames: Y:0.0% UV:0.0%
[libx264 @ 0x13f706140] ref P L0: 75.9%  1.4% 12.8%  9.9%
[libx264 @ 0x13f706140] ref B L0: 67.6% 29.5%  2.9%
[libx264 @ 0x13f706140] ref B L1: 89.5% 10.5%
[libx264 @ 0x13f706140] kb/s:37.20
[ 718s]   videos/scene_seg_interactive/driver.mp4 placed (frames 313..423)
[ 718s]   screenshots/scene_seg_interactive_executed.png placed
ffmpeg version 7.1 Copyright (c) 2000-2024 the FFmpeg developers
  built with Apple clang version 13.1.6 (clang-1316.0.21.2.5)
  configuration: --prefix=/Volumes/tempdisk/sw --extra-cflags=-fno-stack-check --arch=arm64 --cc=/usr/bin/clang --enable-gpl --enable-libvmaf --enable-libopenjpeg --enable-libopus --enable-libmp3lame --enable-libx264 --enable-libx265 --enable-libvpx --enable-libwebp --enable-libass --enable-libfreetype --enable-fontconfig --enable-libtheora --enable-libvorbis --enable-libsnappy --enable-libaom --enable-libvidstab --enable-libzimg --enable-libsvtav1 --enable-libharfbuzz --enable-libkvazaar --pkg-config-flags=--static --enable-ffplay --enable-postproc --enable-neon --enable-runtime-cpudetect --disable-indev=qtkit --disable-indev=x11grab_xcb
  libavutil      59. 39.100 / 59. 39.100
  libavcodec     61. 19.100 / 61. 19.100
  libavformat    61.  7.100 / 61.  7.100
  libavdevice    61.  3.100 / 61.  3.100
  libavfilter    10.  4.100 / 10.  4.100
  libswscale      8.  3.100 /  8.  3.100
  libswresample   5.  3.100 /  5.  3.100
  libpostproc    58.  3.100 / 58.  3.100
Input #0, image2, from '/Users/runner/work/comfy-gpu-ci/comfy-gpu-ci/comfy-test-logs/SAM3-0918/dev/macos-desktop/debug/electron_inspect/frames/frame_%06d.png':
  Duration: 00:01:01.00, start: 0.000000, bitrate: N/A
  Stream #0:0: Video: png, rgb24(pc, gbr/bt709/iec61966-2-1), 1024x653, 5 fps, 5 tbr, 5 tbn
Stream mapping:
  Stream #0:0 -> #0:0 (png (native) -> h264 (libx264))
Press [q] to stop, [?] for help
[libx264 @ 0x146706140] using cpu capabilities: ARMv8 NEON
[libx264 @ 0x146706140] profile High, level 3.1, 4:2:0, 8-bit
[libx264 @ 0x146706140] 264 - core 164 r3190 7ed753b - H.264/MPEG-4 AVC codec - Copyleft 2003-2024 - http://www.videolan.org/x264.html - options: cabac=1 ref=3 deblock=1:0:0 analyse=0x3:0x113 me=hex subme=7 psy=1 psy_rd=1.00:0.00 mixed_ref=1 me_range=16 chroma_me=1 trellis=1 8x8dct=1 cqm=0 deadzone=21,11 fast_pskip=1 chroma_qp_offset=-2 threads=4 lookahead_threads=1 sliced_threads=0 nr=0 decimate=1 interlaced=0 bluray_compat=0 constrained_intra=0 bframes=3 b_pyramid=2 b_adapt=1 b_bias=0 direct=1 weightb=1 open_gop=0 weightp=2 keyint=250 keyint_min=5 scenecut=40 intra_refresh=0 rc_lookahead=40 rc=crf mbtree=1 crf=23.0 qcomp=0.60 qpmin=0 qpmax=69 qpstep=4 ip_ratio=1.40 aq=1:1.00
Output #0, mp4, to '/Users/runner/work/comfy-gpu-ci/comfy-gpu-ci/comfy-test-logs/SAM3-0918/dev/macos-desktop/videos/image_seg_point/driver.mp4':
  Metadata:
    encoder         : Lavf61.7.100
  Stream #0:0: Video: h264 (avc1 / 0x31637661), yuv420p(tv, unknown/bt709/iec61966-2-1, progressive), 1024x654, q=2-31, 5 fps, 10240 tbn
      Metadata:
        encoder         : Lavc61.19.100 libx264
      Side data:
        cpb: bitrate max/min/avg: 0/0/0 buffer size: 0 vbv_delay: N/A
[out#0/mp4 @ 0x600002168000] video:104KiB audio:0KiB subtitle:0KiB other streams:0KiB global headers:0KiB muxing overhead: 1.673818%
frame=   76 fps=0.0 q=-1.0 Lsize=     105KiB time=00:00:14.80 bitrate=  58.3kbits/s speed=52.4x    
[libx264 @ 0x146706140] frame I:2     Avg QP:12.61  size: 34210
[libx264 @ 0x146706140] frame P:19    Avg QP:16.02  size:  1743
[libx264 @ 0x146706140] frame B:55    Avg QP:23.34  size:    69
[libx264 @ 0x146706140] consecutive B-frames:  2.6%  2.6%  0.0% 94.7%
[libx264 @ 0x146706140] mb I  I16..4: 47.2% 28.3% 24.5%
[libx264 @ 0x146706140] mb P  I16..4:  0.7%  0.4%  0.6%  P16..4:  1.0%  0.2%  0.1%  0.0%  0.0%    skip:96.9%
[libx264 @ 0x146706140] mb B  I16..4:  0.1%  0.1%  0.0%  B16..8:  1.2%  0.0%  0.0%  direct: 0.0%  skip:98.6%  L0:44.5% L1:55.4% BI: 0.2%
[libx264 @ 0x146706140] 8x8 transform intra:28.5% inter:49.8%
[libx264 @ 0x146706140] coded y,uvDC,uvAC intra: 18.0% 18.3% 14.6% inter: 0.1% 0.2% 0.1%
[libx264 @ 0x146706140] i16 v,h,dc,p: 57% 38%  0%  5%
[libx264 @ 0x146706140] i8 v,h,dc,ddl,ddr,vr,hd,vl,hu: 56% 16% 25%  0%  1%  1%  1%  0%  0%
[libx264 @ 0x146706140] i4 v,h,dc,ddl,ddr,vr,hd,vl,hu: 35% 32% 16%  2%  3%  3%  4%  2%  3%
[libx264 @ 0x146706140] i8c dc,h,v,p: 71% 17%  8%  4%
[libx264 @ 0x146706140] Weighted P-Frames: Y:0.0% UV:0.0%
[libx264 @ 0x146706140] ref P L0: 77.1%  2.3% 13.5%  7.0%
[libx264 @ 0x146706140] ref B L0: 63.5% 34.4%  2.1%
[libx264 @ 0x146706140] ref B L1: 97.3%  2.7%
[libx264 @ 0x146706140] kb/s:55.45
[ 718s]   videos/image_seg_point/driver.mp4 placed (frames 460..535)
[ 718s]   screenshots/image_seg_point_executed.png placed
ffmpeg version 7.1 Copyright (c) 2000-2024 the FFmpeg developers
  built with Apple clang version 13.1.6 (clang-1316.0.21.2.5)
  configuration: --prefix=/Volumes/tempdisk/sw --extra-cflags=-fno-stack-check --arch=arm64 --cc=/usr/bin/clang --enable-gpl --enable-libvmaf --enable-libopenjpeg --enable-libopus --enable-libmp3lame --enable-libx264 --enable-libx265 --enable-libvpx --enable-libwebp --enable-libass --enable-libfreetype --enable-fontconfig --enable-libtheora --enable-libvorbis --enable-libsnappy --enable-libaom --enable-libvidstab --enable-libzimg --enable-libsvtav1 --enable-libharfbuzz --enable-libkvazaar --pkg-config-flags=--static --enable-ffplay --enable-postproc --enable-neon --enable-runtime-cpudetect --disable-indev=qtkit --disable-indev=x11grab_xcb
  libavutil      59. 39.100 / 59. 39.100
  libavcodec     61. 19.100 / 61. 19.100
  libavformat    61.  7.100 / 61.  7.100
  libavdevice    61.  3.100 / 61.  3.100
  libavfilter    10.  4.100 / 10.  4.100
  libswscale      8.  3.100 /  8.  3.100
  libswresample   5.  3.100 /  5.  3.100
  libpostproc    58.  3.100 / 58.  3.100
Input #0, image2, from '/Users/runner/work/comfy-gpu-ci/comfy-gpu-ci/comfy-test-logs/SAM3-0918/dev/macos-desktop/debug/electron_inspect/frames/frame_%06d.png':
  Duration: 00:00:38.80, start: 0.000000, bitrate: N/A
  Stream #0:0: Video: png, rgb24(pc, gbr/bt709/iec61966-2-1), 1024x656, 5 fps, 5 tbr, 5 tbn
Stream mapping:
  Stream #0:0 -> #0:0 (png (native) -> h264 (libx264))
Press [q] to stop, [?] for help
[libx264 @ 0x156706140] using cpu capabilities: ARMv8 NEON
[libx264 @ 0x156706140] profile High, level 3.1, 4:2:0, 8-bit
[libx264 @ 0x156706140] 264 - core 164 r3190 7ed753b - H.264/MPEG-4 AVC codec - Copyleft 2003-2024 - http://www.videolan.org/x264.html - options: cabac=1 ref=3 deblock=1:0:0 analyse=0x3:0x113 me=hex subme=7 psy=1 psy_rd=1.00:0.00 mixed_ref=1 me_range=16 chroma_me=1 trellis=1 8x8dct=1 cqm=0 deadzone=21,11 fast_pskip=1 chroma_qp_offset=-2 threads=4 lookahead_threads=1 sliced_threads=0 nr=0 decimate=1 interlaced=0 bluray_compat=0 constrained_intra=0 bframes=3 b_pyramid=2 b_adapt=1 b_bias=0 direct=1 weightb=1 open_gop=0 weightp=2 keyint=250 keyint_min=5 scenecut=40 intra_refresh=0 rc_lookahead=40 rc=crf mbtree=1 crf=23.0 qcomp=0.60 qpmin=0 qpmax=69 qpstep=4 ip_ratio=1.40 aq=1:1.00
Output #0, mp4, to '/Users/runner/work/comfy-gpu-ci/comfy-gpu-ci/comfy-test-logs/SAM3-0918/dev/macos-desktop/videos/image_seg_text/driver.mp4':
  Metadata:
    encoder         : Lavf61.7.100
  Stream #0:0: Video: h264 (avc1 / 0x31637661), yuv420p(tv, unknown/bt709/iec61966-2-1, progressive), 1024x656, q=2-31, 5 fps, 10240 tbn
      Metadata:
        encoder         : Lavc61.19.100 libx264
      Side data:
        cpb: bitrate max/min/avg: 0/0/0 buffer size: 0 vbv_delay: N/A
[out#0/mp4 @ 0x6000016d0000] video:120KiB audio:0KiB subtitle:0KiB other streams:0KiB global headers:0KiB muxing overhead: 1.498841%
frame=   83 fps=0.0 q=-1.0 Lsize=     122KiB time=00:00:16.20 bitrate=  61.8kbits/s speed=42.4x    
[libx264 @ 0x156706140] frame I:2     Avg QP:12.69  size: 43436
[libx264 @ 0x156706140] frame P:21    Avg QP:15.98  size:  1383
[libx264 @ 0x156706140] frame B:60    Avg QP:23.68  size:   113
[libx264 @ 0x156706140] consecutive B-frames:  2.4%  2.4%  3.6% 91.6%
[libx264 @ 0x156706140] mb I  I16..4: 41.6% 27.0% 31.4%
[libx264 @ 0x156706140] mb P  I16..4:  0.5%  0.1%  0.6%  P16..4:  1.1%  0.2%  0.1%  0.0%  0.0%    skip:97.5%
[libx264 @ 0x156706140] mb B  I16..4:  0.1%  0.0%  0.0%  B16..8:  1.1%  0.1%  0.0%  direct: 0.0%  skip:98.6%  L0:42.8% L1:56.9% BI: 0.2%
[libx264 @ 0x156706140] 8x8 transform intra:25.4% inter:60.4%
[libx264 @ 0x156706140] coded y,uvDC,uvAC intra: 38.3% 19.3% 15.3% inter: 0.1% 0.2% 0.1%
[libx264 @ 0x156706140] i16 v,h,dc,p: 47% 46%  0%  6%
[libx264 @ 0x156706140] i8 v,h,dc,ddl,ddr,vr,hd,vl,hu: 58% 19% 17%  0%  2%  2%  1%  0%  1%
[libx264 @ 0x156706140] i4 v,h,dc,ddl,ddr,vr,hd,vl,hu: 42% 32% 12%  2%  3%  2%  3%  2%  3%
[libx264 @ 0x156706140] i8c dc,h,v,p: 71% 15%  8%  5%
[libx264 @ 0x156706140] Weighted P-Frames: Y:0.0% UV:0.0%
[libx264 @ 0x156706140] ref P L0: 79.0%  1.2%  8.9% 10.8%
[libx264 @ 0x156706140] ref B L0: 78.4% 18.7%  2.9%
[libx264 @ 0x156706140] ref B L1: 94.8%  5.2%
[libx264 @ 0x156706140] kb/s:59.12
[ 719s]   videos/image_seg_text/driver.mp4 placed (frames 571..653)
[ 719s]   screenshots/image_seg_text_executed.png placed
ffmpeg version 7.1 Copyright (c) 2000-2024 the FFmpeg developers
  built with Apple clang version 13.1.6 (clang-1316.0.21.2.5)
  configuration: --prefix=/Volumes/tempdisk/sw --extra-cflags=-fno-stack-check --arch=arm64 --cc=/usr/bin/clang --enable-gpl --enable-libvmaf --enable-libopenjpeg --enable-libopus --enable-libmp3lame --enable-libx264 --enable-libx265 --enable-libvpx --enable-libwebp --enable-libass --enable-libfreetype --enable-fontconfig --enable-libtheora --enable-libvorbis --enable-libsnappy --enable-libaom --enable-libvidstab --enable-libzimg --enable-libsvtav1 --enable-libharfbuzz --enable-libkvazaar --pkg-config-flags=--static --enable-ffplay --enable-postproc --enable-neon --enable-runtime-cpudetect --disable-indev=qtkit --disable-indev=x11grab_xcb
  libavutil      59. 39.100 / 59. 39.100
  libavcodec     61. 19.100 / 61. 19.100
  libavformat    61.  7.100 / 61.  7.100
  libavdevice    61.  3.100 / 61.  3.100
  libavfilter    10.  4.100 / 10.  4.100
  libswscale      8.  3.100 /  8.  3.100
  libswresample   5.  3.100 /  5.  3.100
  libpostproc    58.  3.100 / 58.  3.100
Input #0, image2, from '/Users/runner/work/comfy-gpu-ci/comfy-gpu-ci/comfy-test-logs/SAM3-0918/dev/macos-desktop/debug/electron_inspect/frames/frame_%06d.png':
  Duration: 00:00:15.20, start: 0.000000, bitrate: N/A
  Stream #0:0: Video: png, rgb24(pc, gbr/bt709/iec61966-2-1), 1024x653, 5 fps, 5 tbr, 5 tbn
Stream mapping:
  Stream #0:0 -> #0:0 (png (native) -> h264 (libx264))
Press [q] to stop, [?] for help
[libx264 @ 0x131e08220] using cpu capabilities: ARMv8 NEON
[libx264 @ 0x131e08220] profile High, level 3.1, 4:2:0, 8-bit
[libx264 @ 0x131e08220] 264 - core 164 r3190 7ed753b - H.264/MPEG-4 AVC codec - Copyleft 2003-2024 - http://www.videolan.org/x264.html - options: cabac=1 ref=3 deblock=1:0:0 analyse=0x3:0x113 me=hex subme=7 psy=1 psy_rd=1.00:0.00 mixed_ref=1 me_range=16 chroma_me=1 trellis=1 8x8dct=1 cqm=0 deadzone=21,11 fast_pskip=1 chroma_qp_offset=-2 threads=4 lookahead_threads=1 sliced_threads=0 nr=0 decimate=1 interlaced=0 bluray_compat=0 constrained_intra=0 bframes=3 b_pyramid=2 b_adapt=1 b_bias=0 direct=1 weightb=1 open_gop=0 weightp=2 keyint=250 keyint_min=5 scenecut=40 intra_refresh=0 rc_lookahead=40 rc=crf mbtree=1 crf=23.0 qcomp=0.60 qpmin=0 qpmax=69 qpstep=4 ip_ratio=1.40 aq=1:1.00
Output #0, mp4, to '/Users/runner/work/comfy-gpu-ci/comfy-gpu-ci/comfy-test-logs/SAM3-0918/dev/macos-desktop/videos/scene_seg/driver.mp4':
  Metadata:
    encoder         : Lavf61.7.100
  Stream #0:0: Video: h264 (avc1 / 0x31637661), yuv420p(tv, unknown/bt709/iec61966-2-1, progressive), 1024x654, q=2-31, 5 fps, 10240 tbn
      Metadata:
        encoder         : Lavc61.19.100 libx264
      Side data:
        cpb: bitrate max/min/avg: 0/0/0 buffer size: 0 vbv_delay: N/A
[out#0/mp4 @ 0x600002b28300] video:123KiB audio:0KiB subtitle:0KiB other streams:0KiB global headers:0KiB muxing overhead: 1.408876%
frame=   76 fps=0.0 q=-1.0 Lsize=     125KiB time=00:00:14.80 bitrate=  69.1kbits/s speed=39.3x    
[libx264 @ 0x131e08220] frame I:2     Avg QP:11.97  size: 34760
[libx264 @ 0x131e08220] frame P:19    Avg QP:16.23  size:  2383
[libx264 @ 0x131e08220] frame B:55    Avg QP:23.59  size:   191
[libx264 @ 0x131e08220] consecutive B-frames:  2.6%  2.6%  0.0% 94.7%
[libx264 @ 0x131e08220] mb I  I16..4: 50.2% 25.3% 24.5%
[libx264 @ 0x131e08220] mb P  I16..4:  0.9%  0.3%  0.9%  P16..4:  1.2%  0.3%  0.1%  0.0%  0.0%    skip:96.3%
[libx264 @ 0x131e08220] mb B  I16..4:  0.1%  0.1%  0.0%  B16..8:  1.5%  0.1%  0.0%  direct: 0.0%  skip:98.2%  L0:49.9% L1:49.7% BI: 0.4%
[libx264 @ 0x131e08220] 8x8 transform intra:24.2% inter:34.5%
[libx264 @ 0x131e08220] coded y,uvDC,uvAC intra: 18.8% 18.3% 13.9% inter: 0.2% 0.3% 0.1%
[libx264 @ 0x131e08220] i16 v,h,dc,p: 62% 35%  0%  3%
[libx264 @ 0x131e08220] i8 v,h,dc,ddl,ddr,vr,hd,vl,hu: 65% 14% 16%  0%  1%  1%  1%  0%  1%
[libx264 @ 0x131e08220] i4 v,h,dc,ddl,ddr,vr,hd,vl,hu: 33% 34% 17%  2%  3%  2%  3%  2%  4%
[libx264 @ 0x131e08220] i8c dc,h,v,p: 72% 17%  9%  3%
[libx264 @ 0x131e08220] Weighted P-Frames: Y:0.0% UV:0.0%
[libx264 @ 0x131e08220] ref P L0: 80.4%  4.7% 10.0%  4.9%
[libx264 @ 0x131e08220] ref B L0: 86.6% 11.6%  1.8%
[libx264 @ 0x131e08220] ref B L1: 96.1%  3.9%
[libx264 @ 0x131e08220] kb/s:65.95
[ 719s]   videos/scene_seg/driver.mp4 placed (frames 689..764)
[ 719s]   screenshots/scene_seg_executed.png placed
[ 719s]   removed /Users/runner/work/comfy-gpu-ci/comfy-gpu-ci/comfy-test-logs/SAM3-0918/dev/macos-desktop/debug/electron_inspect/frames after successful encode
